<svg xmlns="http://www.w3.org/2000/svg" viewBox="0 0 1156.14 417.4"><defs><style>.cls-1{fill:#231f20;}</style></defs><title>Asset 1</title><g id="Layer_2" data-name="Layer 2"><g id="Layer_1-2" data-name="Layer 1"><path class="cls-1" d="M132.36,356.12c-8.15-1.87-11.75-3.07-13.34-3.76-4.14-2-6.86-4.49-8.31-7.52a27.34,27.34,0,0,1-2.48-11.94l-.43-61.35V108.07l.43-23.5A31.75,31.75,0,0,1,110.68,72c1.3-3,3.87-5.2,7.83-6.6A110.58,110.58,0,0,1,132.76,62a111.57,111.57,0,0,1,16.14-2.09l5.46-.2V31.31H0V59.5l5.26.38A80,80,0,0,1,20,62.61a85.74,85.74,0,0,1,14.61,5.24c4.24,2,7,4.42,8.31,7.2a28.64,28.64,0,0,1,2.28,12V335.66a26.17,26.17,0,0,1-2.62,12.28,15.2,15.2,0,0,1-7.86,6.82c-1.31.58-4.78,1.68-13.27,2.45q-10.67,1-16.24,1.46L0,359.12v28.11H154.36V358.84l-5.48-.19A90.53,90.53,0,0,1,132.36,356.12ZM302.91,128.54c1.42-54.22,8.19-75.42,50.25-111.43L373.15,0,347.07,3.47C306,8.94,263.44,14.59,227.81,47.35c-22.57,20.75-38.45,49.59-50,90.7-8.55,29.38-31.71,38.52-49,42.87l1.9,15.35c16.9,0,42.38-8.68,51.79-15.81s16.15-18.4,20.85-35.17c10.14-36.23,23.61-61.15,42.39-78.41,13.31-12.24,30.12-21.3,51.05-27.46-18.89,30.87-19.68,61.19-20.4,88.46-.81,30.83-.33,55.84-31.07,67.21-8.8,3.25-21.8-8-21.8-8-1.85,22.11,10.3,28.85,21,34.81,14.31,7.94,30.52,16.95,31.85,67.67.71,27.26,1.51,57.59,20.4,88.46-20.92-6.16-37.74-15.23-51.05-27.46-18.78-17.27-32.25-42.18-42.39-78.41-4.69-16.77-11.32-28-20.85-35.17s-34.89-14.44-51.79-14.44l-1.9,15.35c17.3,4.35,40.47,12.12,49,41.42,11.53,41.19,27.41,70,50,90.78,35.63,32.76,78.15,38.42,119.26,43.88l26.08,3.47-20-17.11c-42.06-36-48.83-57.21-50.25-111.43-.8-30.48-1.56-59.44-28.75-80.17C301.36,188,302.12,159,302.91,128.54Zm325.7-69.08,5.21.42a113.18,113.18,0,0,1,15.9,2.9,81.48,81.48,0,0,1,15.66,5.08c4.05,1.9,6.87,4.24,8.37,7a22.5,22.5,0,0,1,2.4,9.77L521,278V84.58a33.15,33.15,0,0,1,2.37-12.66c1.23-3,3.75-5.13,7.67-6.51A111.12,111.12,0,0,1,545.14,62a108.7,108.7,0,0,1,16-2.09l5.46-.2V31.31H412.74V59.5l5.26.38a87.26,87.26,0,0,1,15.13,2.75,83.39,83.39,0,0,1,14.92,5.23c4,1.88,6.71,4.32,8.24,7.44A26.39,26.39,0,0,1,458.87,87V335.66c0,5.28-.89,9.53-2.66,12.61a15,15,0,0,1-7.87,6.41l-.16.06-.15.07c-1.2.57-4.53,1.63-13.26,2.39q-11,1-16.85,1.46l-5.2.43v28.13H566.62V358.86l-5.46-.21a116.83,116.83,0,0,1-16.61-2.33c-9-1.76-12.47-3.15-13.74-3.82-4.4-2.33-7.41-4.84-8.7-7.26-1.41-2.62-2.12-6.34-2.12-11v-3.59L675.24,136.9V335.66c0,5.28-.89,9.53-2.66,12.61a15,15,0,0,1-7.87,6.41l-.16.06-.15.07c-1.2.57-4.55,1.63-13.49,2.39l-17.1,1.46-5.2.43v28.13H782.49V358.87l-5.45-.21a103.92,103.92,0,0,1-15.71-2.31c-8.08-1.67-11.63-3-13.19-3.83-4.38-2.32-7.27-4.89-8.59-7.64A27.64,27.64,0,0,1,737.33,333V84.58a33.15,33.15,0,0,1,2.37-12.66c1.23-3,3.75-5.13,7.67-6.51A112.19,112.19,0,0,1,761.29,62,103.54,103.54,0,0,1,777,59.89l5.46-.2V31.31H628.61ZM844.42,31.31V136.14h27l1.14-4.18A135.52,135.52,0,0,1,880,112.54a159.8,159.8,0,0,1,12.43-22.4,122.53,122.53,0,0,1,15.2-18.68c4.8-4.8,9.28-7.48,13.29-8,6.62-.79,13.64-1.31,20.89-1.54s13.55-.36,18.51-.36h8.42V333.72c0,5.52-1,9.85-2.89,12.88s-4.83,5.2-9.13,6.89c-2.1.86-6.88,2.12-17.75,3.25-9.25,1-16.17,1.61-20.58,1.93l-5.27.38v28.19h174V358.82l-5.5-.17c-4.82-.15-11.8-1.17-20.75-3-11-2.29-15.5-3.61-17.35-4.31-4.4-1.9-7.34-4.4-9-7.64a26.05,26.05,0,0,1-2.78-12.12V61.59h8.44c6.35,0,13.39.16,20.93.48s13.61.79,18.43,1.41c4.13.64,8.67,3.35,13.52,8a109,109,0,0,1,15.16,18.6,182,182,0,0,1,12.39,22,110,110,0,0,1,7.53,19.7l1.08,4.29h26.85V31.31Z"/></g></g></svg>